# xmcd
# Copyright (C) 1995-1998 Ti Kan
#
# Track frame offsets:
#       150
#       13861
#       27388
#
# Disc length: 568 seconds
#
# Revision: 0
# Processed by: cddbd v1.5.2PL0 Copyright (c) Steve Scherf et al.
# Submitted via: CD-Transfer v1.0
#
DISCID=1d023603
DTITLE=Sommerwind - 
DYEAR=1900
DGENRE=
TTITLE0=Ohne Regen Gibt Es Keinen Regenbogen
TTITLE1=Bouna Sera
TTITLE2=Tränen Lügen Nicht
EXTD=
EXTT0=
EXTT1=
EXTT2=
PLAYORDER=
